 <svg height="1080" width="1920"> <g id="Layer_1"> <path id="shipath" d="m1674.98551,978.32504l25.0052,-176.66275c1.66133,1.66371 -91.6715,-8.33624 -91.6715,-10.00289c0,-1.66666 -83.33288,33.33315 -88.33285,39.99978c-4.99997,6.66663 -73.33293,28.33318 -74.99959,19.99989c-1.66666,-8.33329 -18.33323,-71.66628 -19.99989,-76.66625c-1.66666,-4.99997 -28.33318,-53.33304 -44.99975,-49.99973c-16.66658,3.33332 -181.66567,56.66636 -183.327,55.00265c1.66132,1.66371 -23.33854,-73.33588 -24.99986,-74.99959c1.66132,1.66371 -85.00487,98.32985 -86.67153,98.32985c-1.66666,0 -124.99932,19.99989 -124.99932,18.33323c0,-1.66666 -66.6663,-151.66584 -66.6663,-153.3325c0,-1.66666 -86.66619,21.66655 -86.66619,23.33321c0,1.66666 14.99992,153.3325 13.33859,151.66879c1.66132,1.66371 -66.67164,29.99689 -73.33827,29.99689c-6.66663,0 -101.66611,0 -104.99943,-6.66663c-3.33332,-6.66663 -79.99956,-131.66595 -79.99956,-134.99926c0,-3.33332 73.33293,-219.9988 71.67161,-221.66251c1.66132,1.66371 178.32703,-36.66942 179.99368,-36.66942c1.66666,0 206.66554,109.9994 214.99883,108.33274c8.33329,-1.66666 104.99943,-56.66636 114.99937,-74.99959c9.99995,-18.33323 59.99967,-79.99956 58.33301,-86.66619c-1.66666,-6.66663 -268.33187,-66.6663 -269.99319,-68.33001c1.66132,1.66371 -28.33851,-33.3361 -31.67183,-33.3361c-3.33332,0 -264.99855,64.99964 -269.99852,69.99962c-4.99997,4.99997 -114.99937,176.6657 -116.66603,173.33239c-1.66666,-3.33332 -66.6663,-159.99913 -68.32763,-161.66283c1.66132,1.66371 309.99297,264.9956 308.33165,263.33189c1.66132,1.66371 128.3273,188.32936 129.99396,188.32936c1.66666,0 594.99675,136.66592 593.33542,135.00221c1.66133,1.66371 176.66037,-5.00292 174.99904,-6.66663c1.66133,1.66371 -33.33848,-25.00281 -34.99981,-26.66652c1.66133,1.66371 -5.0053,76.6633 -5.0053,74.99664c0,-1.66666 69.99962,-19.99989 68.33829,-21.6636c1.66133,1.66371 -140.00457,-50.00268 -140.00457,-51.66933c0,-1.66666 69.99962,-38.33312 68.33829,-39.99683c1.66133,1.66371 -46.67174,121.66305 -48.33307,119.99934c1.66133,1.66371 216.66015,-71.66922 214.99883,-73.33293c1.66133,1.66371 -181.67101,-63.33594 -183.33233,-64.99964c1.66133,1.66371 -180.00435,31.66355 -180.00435,29.99689c0,-1.66666 68.33296,126.66597 58.33301,119.99934c-9.99995,-6.66663 -184.99899,-76.66625 -184.99899,-81.66622c0,-4.99997 56.66636,-336.66483 55.00503,-338.32854c1.66133,1.66371 -153.33783,6.66368 -158.3378,6.66368c-4.99997,0 -114.99937,13.33326 -113.33271,23.33321c1.66666,9.99995 -61.66633,339.99814 -63.33299,341.6648c-1.66666,1.66666 -131.66595,4.99997 -131.66595,3.33332c0,-1.66666 -71.66628,-24.99986 -69.99962,-29.99984c1.66666,-4.99997 141.66589,-266.66521 140.00457,-268.32892c1.66132,1.66371 98.32746,-58.33596 93.32749,-61.66928c-4.99997,-3.33332 -201.66556,-73.33293 -203.32689,-74.99664c1.66132,1.66371 -105.00476,39.99683 -100.00479,18.33028c4.99997,-21.66655 49.99973,-291.66507 44.99975,-291.66507c-4.99997,0 -259.99858,26.66652 -261.6599,25.00281c1.66132,1.66371 -168.33775,113.32976 -166.67109,118.32974c1.66666,4.99997 109.9994,308.33165 108.33808,306.66794c1.66132,1.66371 13.32793,148.32957 11.6666,146.66587c1.66132,1.66371 -133.33794,-16.66952 -131.67128,-16.66952c1.66666,0 -43.3331,-119.99934 -44.99442,-121.66305c1.66132,1.66371 -71.67161,-101.66906 -73.33827,-101.66906c-1.66666,0 348.33143,188.3323 346.67011,186.6686c1.66132,1.66371 113.32738,-58.33596 111.66606,-59.99967c1.66132,1.66371 -60.00501,4.99702 -60.00501,3.33037c0,-1.66666 74.99959,-36.66647 73.33827,-38.33018c1.66132,1.66371 -25.0052,83.32993 -23.33854,78.32996c1.66666,-4.99997 -9.99995,-103.33277 -8.33329,-101.66611c1.66666,1.66666 61.66633,118.33269 61.66633,116.66603c0,-1.66666 -123.33266,-98.3328 -103.33277,-98.3328c19.99989,0 146.66587,13.33326 145.00454,11.66955c1.66132,1.66371 -95.00481,114.99642 -96.66614,113.33271c1.66132,1.66371 38.32779,-130.00224 39.99445,-130.00224" stroke="#ff3452" fill="transparent" stroke-width="3"/> </g> </svg>